<svg xmlns="http://www.w3.org/2000/svg" width="1937.261" height="400.028" version="1.0" viewBox="0 0 4947 1022" shape-rendering="geometricPrecision" text-rendering="geometricPrecision" image-rendering="optimizeQuality" fill-rule="evenodd" clip-rule="evenodd"><path d="M0 0h4947v1022H0V0zm974 546h-10c-4 1-7 1-10 2-4 1-7 2-11 3v100h-47v-96c0-3-1-5-3-7-1-2-4-2-6-2h-12c-3 1-6 1-9 2-4 1-8 2-11 3v100h-47V509h41l3 14c5-3 10-6 15-8l15-6c6-1 12-2 18-2h3c8 0 15 1 20 4s10 7 13 12c5-3 10-6 15-8s10-4 17-6c6-1 13-2 20-2h3c12 0 22 3 29 11 8 7 11 17 11 29v104h-47v-96c0-3-1-5-2-7-2-2-4-2-7-2h-1zm226 65c0 13-4 24-12 32-7 7-18 11-31 11h-62c-13 0-23-4-31-11-8-8-11-19-11-32v-61c0-14 3-24 11-32 8-7 18-11 31-11h62c13 0 24 4 31 11 8 8 12 18 12 32v61zm-47-57c0-8-4-11-11-11h-32c-7 0-11 3-11 11v53c0 7 4 11 11 11h32c7 0 11-4 11-11v-53zm126-45h33v37h-33v61c0 3 1 5 2 7 2 2 4 2 7 2h35v35c-5 1-11 1-16 1-5 1-11 2-17 2h-18c-12 0-22-4-29-11-7-8-11-17-11-29v-68h-16v-37h16l5-32h42v32zm202 102c0 13-4 24-12 32-7 7-18 11-31 11h-62c-13 0-24-4-31-11-8-8-11-19-11-32v-61c0-14 3-24 11-32 7-7 18-11 31-11h62c13 0 24 4 31 11 8 8 12 18 12 32v61zm-47-57c0-8-4-11-11-11h-32c-7 0-11 3-11 11v53c0 7 4 11 11 11h32c7 0 11-4 11-11v-53zm68-2c0-13 4-24 11-31 8-8 19-12 32-12h86v37h-71c-8 0-11 3-11 10v52c0 3 1 5 3 7 1 1 4 2 6 2h23c9 0 17 0 24-1 8-1 17-1 26-2v35c-10 1-21 2-31 2-8 1-18 2-28 2h-30c-12 0-22-4-29-11s-11-17-11-29v-61zm191-43l3 18c4-4 9-7 14-10 4-3 9-5 15-7s12-3 19-3h12v41h-22c-5 0-10 1-14 2-4 0-8 1-11 2-4 1-7 3-10 4v95h-47V509h41zm221 102c0 13-4 24-11 32-8 7-18 11-32 11h-61c-14 0-24-4-32-11-7-8-11-19-11-32v-61c0-14 4-24 11-32 8-7 18-11 32-11h61c14 0 24 4 32 11 7 8 11 18 11 32v61zm-47-57c0-8-3-11-10-11h-33c-7 0-10 3-10 11v53c0 7 3 11 10 11h33c7 0 10-4 10-11v-53zm110 0c0 2 1 4 3 6 1 2 4 3 6 3h49c12 0 21 4 29 11 7 7 11 17 11 29v10c0 12-4 22-11 29-8 7-17 11-29 11h-36c-11 0-22-1-32-2-12 0-23-1-34-2v-35c9 1 19 2 29 3h56c3 0 5-1 7-3 2-1 3-3 3-6v-9h-58c-12 0-22-4-29-11s-11-17-11-29v-9c0-13 4-22 11-30 7-7 17-11 29-11h91v35h-75c-2 0-5 1-6 3-2 2-3 4-3 7zm155 0c0 2 1 4 3 6s4 3 7 3h48c12 0 22 4 29 11s11 17 11 29v10c0 12-4 22-11 29s-17 11-29 11h-35c-12 0-23-1-33-2-12 0-23-1-34-2v-35c10 1 19 2 29 3h57c2 0 5-1 6-3 2-1 3-3 3-6v-9h-58c-12 0-21-4-29-11-7-7-11-17-11-29v-9c0-13 4-22 11-30 8-7 17-11 29-11h91v35h-74c-3 0-5 1-7 3s-3 4-3 7zm290-14c-7 0-11 4-11 11v15h46v-15c0-7-4-11-11-11h-24zm-58 9c0-13 4-23 12-31 7-7 18-11 31-11h54c13 0 24 4 31 11 8 8 11 18 11 32v49h-92v10c0 3 1 5 3 7 2 1 4 2 7 2h50l27-3v34c-10 1-21 2-32 2-9 1-19 2-30 2h-32c-12 0-21-4-29-11-7-7-11-17-11-29v-64zm205-40l3 14c4-3 9-6 15-8 4-2 9-4 15-6 6-1 12-2 18-2h12c12 0 22 3 29 11 7 7 11 17 11 29v104h-47v-96c0-3-1-5-2-7-2-2-4-2-7-2h-20c-4 1-7 1-11 2-3 1-7 2-11 3v100h-46V509h41zm227 142l-2-13c-5 3-10 6-15 8s-10 4-16 5c-5 2-11 3-17 3h-12c-13 0-22-4-30-11-7-7-11-17-11-29v-62c0-13 4-24 12-31 7-8 18-12 31-12h55v-45h47v187h-42zm-5-105h-40c-7 0-11 3-11 10v50c0 2 1 5 3 6 2 2 4 3 7 3h9c3 0 7 0 11-1 3 0 7-1 10-2 4 0 8-1 11-2v-64zm177 105l-3-13c-5 3-10 6-15 8s-10 4-15 5c-6 2-12 3-18 3h-12c-12 0-22-4-29-11-8-7-11-17-11-29V509h46v97c0 2 1 5 3 6 2 2 4 3 7 3h9c4 0 7 0 11-1 4 0 7-1 10-2 4 0 8-1 11-2V509h47v142h-41zm109-142l3 18c4-4 9-7 14-10 4-3 9-5 15-7s12-3 19-3h12v41h-22c-5 0-10 1-14 2-4 0-8 1-11 2-4 1-7 3-10 4v95h-47V509h41zm221 102c0 13-4 24-11 32-8 7-18 11-32 11h-61c-14 0-24-4-32-11-7-8-11-19-11-32v-61c0-14 4-24 11-32 8-7 18-11 32-11h61c14 0 24 4 32 11 7 8 11 18 11 32v61zm-47-57c0-8-3-11-10-11h-33c-7 0-10 3-10 11v53c0 7 3 11 10 11h33c7 0 10-4 10-11v-53zm228-14c0 3 1 5 3 7s4 2 7 2h48c12 0 22 4 29 11 7 8 11 17 11 29v11c0 12-4 21-11 29-7 7-17 11-29 11h-35c-12 0-23-1-33-3-12 0-23-1-34-2v-35c10 1 20 2 29 3h57c3 0 5 0 7-2 1-2 2-4 2-7v-8h-57c-12 0-22-4-29-11-8-8-11-17-11-30v-9c0-12 3-22 11-29 7-7 17-11 29-11h91v35h-75c-3 0-5 1-7 2-2 2-3 4-3 7zm220 98l-3-14c-4 3-9 6-15 8-4 2-10 4-15 6-6 2-12 2-18 2h-12c-12 0-22-3-29-11-8-7-11-17-11-29V496h47v96c0 3 1 5 2 7 2 2 4 3 7 3h9c4 0 7-1 11-1 4-1 7-1 11-2 3-1 7-2 10-3V496h47v142h-41zm115-36h40c7 0 11-4 11-11v-50c0-2-1-5-3-6-2-2-4-3-7-3h-9c-3 0-7 0-11 1-3 0-7 1-10 2-4 0-8 1-11 2v65zm0 36v45h-47V496h42l2 13c5-3 10-5 15-8 5-2 10-4 16-5 5-2 11-3 17-3h12c13 0 22 4 30 11 7 8 11 17 11 29v62c0 13-4 24-12 31-7 8-18 12-31 12h-55zm176-111c-7 0-10 3-10 10v15h45v-15c0-7-3-10-10-10h-25zm-57 9c0-14 4-24 11-31 8-8 18-12 32-12h53c14 0 24 4 32 12 7 7 11 18 11 31v50h-92v10c0 2 1 4 2 6 2 2 4 3 7 3h50c10-1 19-2 28-3v33c-11 1-21 2-32 2-9 2-19 3-30 3h-32c-12 0-22-4-29-11-7-8-11-17-11-29v-64zm205-40l2 17c4-3 9-7 14-10 4-2 9-4 15-7 6-2 12-3 19-3h13v42h-23c-5 0-9 0-13 1-5 1-8 2-12 3-3 1-7 2-10 4v95h-47V496h42zm247 36c-3 0-6 0-10 1-3 0-7 1-10 2-3 0-7 1-11 2v101h-46v-97c0-2-1-5-3-6-2-2-4-3-7-3h-1c-3 0-7 0-10 1-4 0-7 1-10 2-4 0-7 1-11 2v101h-47V496h42l2 13c5-3 10-5 15-8 5-2 10-4 16-5 6-2 11-3 18-3h2c8 0 15 2 20 5 6 3 10 7 14 11 4-3 9-5 15-8 4-2 10-4 16-5 6-2 13-3 21-3h3c12 0 21 4 29 11 7 8 11 17 11 29v105h-47v-97c0-2-1-5-3-6-2-2-4-3-7-3h-1zm226 66c0 13-4 23-11 31-8 8-18 11-32 11h-61c-14 0-24-3-32-11-7-8-11-18-11-31v-62c0-13 4-24 11-31 8-8 18-12 32-12h61c14 0 24 4 32 12 7 7 11 18 11 31v62zm-47-58c0-7-3-11-10-11h-32c-8 0-11 4-11 11v54c0 7 3 10 11 10h32c7 0 10-3 10-10v-54zm126-44h34v36h-34v62c0 2 1 4 3 6s4 3 6 3h35v35c-5 1-10 1-16 1-5 1-10 1-16 1h-19c-12 0-21-4-29-11-7-7-11-17-11-29v-68h-16v-36h16l6-32h41v32zm202 102c0 13-4 23-11 31-8 8-18 11-32 11h-61c-14 0-24-3-32-11-7-8-11-18-11-31v-62c0-13 4-24 11-31 8-8 18-12 32-12h61c14 0 24 4 32 12 7 7 11 18 11 31v62zm-47-58c0-7-3-11-10-11h-32c-8 0-11 4-11 11v54c0 7 3 10 11 10h32c7 0 10-3 10-10v-54zM2010 967c-23 0-40-6-50-16-11-11-16-28-16-50V790c0-24 5-42 16-53s29-16 53-16h126v48h-112c-14 0-21 7-21 21v111c0 5 2 9 5 12 3 4 7 5 13 5h73v-51h-45v-42h107v134c-17 2-34 4-52 4-15 2-31 4-49 4h-48zm184-246h146c25 0 42 5 53 16s17 29 17 53v31c0 20-3 35-10 45-6 11-16 18-30 22l43 76h-67l-40-73h-49v73h-63V721zm153 69c0-14-7-21-21-21h-69v73h69c14 0 21-7 21-21v-31zm141 174h-68l93-243h69l92 243h-68l-15-43h-87l-16 43zm31-89h56l-28-81-28 81zm173-154h146c24 0 42 5 53 16s16 29 16 53v35c0 24-5 42-16 53s-29 17-53 17h-84v69h-62V721zm153 69c0-14-7-21-21-21h-70v77h70c14 0 21-7 21-21v-35zm306 174h-63v-99h-87v99h-62V721h62v95h87v-95h63v243zm156 0h-125v-49h31V769h-31v-48h125v48h-31v146h31v49zm91 1c-23 0-40-5-50-16-11-10-16-27-16-49V789c0-24 5-41 16-52s29-16 53-16h126v48h-112c-14 0-21 7-21 21v111c0 5 2 9 5 12 3 4 7 5 13 5h52c6 0 13-1 19-3h44v46c-16 3-31 4-47 4h-82zm209-168c0 14 7 21 20 21h63c23 0 39 5 50 16 11 10 16 27 16 49v17c0 22-5 39-16 49-11 11-27 16-50 16h-92c-17 0-34-1-51-4v-45h129c5 0 10-1 13-4s5-7 5-12v-30h-80c-25 0-43-5-54-16s-16-29-16-53v-11c0-24 5-42 16-53s29-16 54-16h122v48h-109c-13 0-20 7-20 21v7zM1110 216l-71 126h-70l-71-126v196h-90V60h95l101 186 101-186h95v352h-90V216zm377-60c0-21-10-31-30-31h-86c-20 0-30 10-30 31v161c0 20 10 30 30 30h86c20 0 30-10 30-30V156zm90 161c0 35-8 60-24 76-15 16-41 24-76 24h-126c-35 0-61-8-77-24s-24-41-24-76V156c0-36 8-61 24-77s42-24 77-24h126c35 0 61 8 76 24 16 16 24 41 24 77v161zm222 95h-91V130h-105V60h301v70h-105v282zm367-256c0-21-10-31-30-31h-86c-20 0-30 10-30 31v161c0 20 10 30 30 30h86c20 0 30-10 30-30V156zm90 161c0 35-8 60-23 76-16 16-42 24-77 24h-126c-35 0-61-8-77-24s-24-41-24-76V156c0-36 8-61 24-77s42-24 77-24h126c35 0 61 8 77 24 15 16 23 41 23 77v161zm36-46v-70h206v70h-206zm327-100c0 20 10 30 30 30h90c33 0 57 7 73 23 15 15 23 39 23 71v25c0 32-8 56-23 71-16 15-40 23-73 23h-133c-25 0-49-3-73-7v-64h186c8 0 14-2 19-7 4-4 6-10 6-17v-43h-115c-36 0-61-8-77-24-16-15-24-41-24-76v-15c0-36 8-61 24-77s41-24 77-24h176v70h-156c-20 0-30 11-30 31v10zm407 241h-91V130h-105V60h302v70h-106v282zm101-352h95l83 171 83-171h96l-134 259v93h-90v-93L3127 60zm467 282h184v70h-274V60h90v282zm498 70h-279V60h279v70h-188v68h148v71h-148v73h188v70zm342-196l-70 126h-70l-71-126v196h-90V60h95l101 186 100-186h96v352h-91V216zm355-156h101l-114 176 116 176h-100l-71-111-70 111h-101l116-176-113-176h100l68 111 68-111zM105 55h570c28 0 51 23 51 50v811c0 28-23 51-51 51H105c-27 0-50-23-50-51V105c0-27 23-50 50-50zm373 194c23 0 55 5 96 15 48 13 77 25 87 38l2 13c0 34-6 79-19 133-8 33-21 81-40 144-18 63-32 110-39 142-3 10-5 35-6 77-2 35-7 60-15 74-15-6-27-20-35-44-8-20-11-42-11-66 0-31 0-66 2-105 5-93 7-152 7-175 0-3-1-10-4-19l-21-15c-16 32-29 60-41 82-18 39-30 67-34 83-3 12-4 28-4 49v28c0 25-3 45-9 59l-18-19c-1-6-1-11-1-16v-16l1-16c0-24-4-43-13-56-9-11-17-23-26-33-9-15-13-37-13-64 0-20-5-38-15-55s-22-27-35-30l-8 4c-1 7-2 14-2 20 0 31 2 94 7 187 3 47 4 85 4 114l-11 26c-18-4-30-31-39-82-3-20-8-56-16-109l-7 6-10 38-10 10c-7-17-12-53-14-110-2-56-6-93-13-110-7-18-10-33-10-45 0-10 2-24 6-43 4-20 6-34 6-44 0-22-5-48-16-78-14-42-22-67-23-77 4-18 15-27 32-28 15 0 44 8 87 25 46 16 72 30 78 41 12 64 19 102 22 115 15 52 32 79 51 79 7 0 14-13 22-38 12-38 20-62 25-71 11-25 26-38 43-38z" fill="#18202e"/></svg>